PathFileType	4	(X/Y/Z)	32_2_23_p1_0-673_filt_butterworth.trc
DataRate	CameraRate	NumFrames	NumMarkers	Units	OrigDataRate	OrigDataStartFrame	OrigNumFrames
60.0	60.0	7	27	m	60.0	336	673
Frame#	Time	RHip			RKnee			RAnkle			RBigToe			RSmallToe			RHeel			LHip			LKnee			LAnkle			LBigToe			LSmallToe			LHeel			Neck			Head			Nose			RShoulder			RElbow			RWrist			RThumb			RIndex			RPinky			LShoulder			LElbow			LWrist			LThumb			LIndex			LPinky			
		X1	Y1	Z1	X2	Y2	Z2	X3	Y3	Z3	X4	Y4	Z4	X5	Y5	Z5	X6	Y6	Z6	X7	Y7	Z7	X8	Y8	Z8	X9	Y9	Z9	X10	Y10	Z10	X11	Y11	Z11	X12	Y12	Z12	X13	Y13	Z13	X14	Y14	Z14	X15	Y15	Z15	X16	Y16	Z16	X17	Y17	Z17	X18	Y18	Z18	X19	Y19	Z19	X20	Y20	Z20	X21	Y21	Z21	X22	Y22	Z22	X23	Y23	Z23	X24	Y24	Z24	X25	Y25	Z25	X26	Y26	Z26	X27	Y27	Z27	
336	5.6	0.3389073286716685	0.36666638552439546	1.0507450344216998	0.33306400312636036	0.4550007813594169	1.5046166367738933	0.32543050723567746	0.47010160413426977	1.9022985795856104	0.31557174224926343	0.3258179592375364	1.9203768143601576	0.3734108919574542	0.3429635465719431	1.917134763185403	0.30419287342116985	0.5678332371464546	1.9929827708677592	0.14505029174823542	0.3870549628462444	1.0865942874102221	0.16731091900208328	0.45910393086949736	1.523232662496847	0.14840547852735855	0.4961469860533574	1.9322990352166056	0.15379367225813584	0.3030180595621164	1.9075282140212249	0.10885278537712151	0.36225270119058445	1.9280700689580683	0.15369701543229558	0.5323390624773839	1.982399853509951	0.21479342104054305	0.39288502729537866	0.5316187867113265	0.19507894183977012	0.3627862308943092	0.30319536807881386	0.197101540943477	0.32329845297307674	0.4161561097325726	0.3659314665838738	0.4159540539331649	0.6061827249859879	0.42210218936333826	0.37171750103927864	0.8496521888020949	0.36676582717851886	0.2001549022869305	0.7501611893173289	0.3006291391216617	0.11556793046183064	0.6825771732524892	0.3051017211809124	0.09105903385671514	0.6823306004528853	0.3531268841357518	0.08390268119283083	0.7162064141565072	0.07498892422232883	0.43508113829581807	0.635350832433735	0.05165913762159499	0.4168655063458677	0.8821473345840304	0.033210562853658046	0.3408042106639373	1.103168008638519	0.05062082031723805	0.2844997984968819	1.1937125561713262	0.03229404167362644	0.28907594703547146	1.2191616331993904	0.014465265974626374	0.33413589044140507	1.2165795527268215
337	5.616666666666666	0.33871339794792554	0.3666288777549964	1.0517565480277982	0.3331690802691456	0.4550260610444779	1.5046797684821556	0.326645035801818	0.4663335983376019	1.9022084861800608	0.3158788435077773	0.32573309615419394	1.9197632839153578	0.3734341917004958	0.34298418096614647	1.917137716370531	0.30420547843814927	0.5677255336382984	1.992910879650395	0.1451489145967818	0.3871777513941029	1.0867330534692095	0.1673098099297071	0.45909945143128084	1.5232303311284947	0.14787356422297118	0.49761995747555066	1.9323251764345644	0.15403521431445102	0.3029710692877928	1.9063318492295918	0.10902810287789877	0.3619067238262913	1.9273289909118771	0.15369822440485573	0.5323649989115928	1.9824359149284456	0.21492723980420406	0.3924046202192544	0.5330412992796199	0.19509273143012207	0.3624989705935825	0.3042608912692364	0.1967843073900226	0.3221126356339937	0.41715540836538156	0.3660881563376889	0.4159034941178116	0.6073707024816273	0.42218325321075456	0.37160599482660456	0.8496248683844488	0.36876189017317573	0.19973333177334512	0.7504079306615683	0.3023633926587563	0.11595206232450911	0.683287590387205	0.3076764367256798	0.08772304182980034	0.6837763489467152	0.36105946856829174	0.08512742652150304	0.7188661514646086	0.07502924695714226	0.43503874611184623	0.6358194075400283	0.05169752900877939	0.41732570770009	0.8828066379889008	0.03378714719103458	0.34358225947848636	1.1042237602820686	0.05058606588753051	0.28305982093846627	1.1933711336971657	0.030613352088928306	0.28861284176382596	1.2176735922133224	0.013901128769496547	0.33414935170781507	1.2161245775388765
338	5.633333333333334	0.33856716675020493	0.3665906803782655	1.052965417890813	0.33315796764548855	0.45500582436177556	1.5046736023826066	0.32742287900115485	0.4649644851704343	1.9013125984150947	0.31625497931015906	0.3256993585744997	1.9193777123978222	0.3734575062792097	0.34303193552727684	1.9171590690047844	0.30422278398749353	0.5676341054096832	1.9927793852822047	0.14506067281048066	0.3872513291376697	1.0867520390279068	0.16732564426188104	0.4590792899010327	1.523249510991018	0.14706789096487566	0.49987631027983404	1.9323173542084133	0.1543814030888963	0.30289498734163284	1.904722674377183	0.10963068547703748	0.36048691273857836	1.9270333967218964	0.15370955135098757	0.5323245485887278	1.9824501823742908	0.21495270839310227	0.39215611352156743	0.5347158184684441	0.19516766925633436	0.36228828212385195	0.30510823322371633	0.1960548590603839	0.319459499277266	0.4179276439840377	0.36578680910833317	0.4171177135409064	0.6082309535409447	0.42230608346103937	0.37125648835360825	0.8494931709329554	0.3708257783192136	0.1987050747144221	0.7506684206160391	0.3047518333683616	0.11642709059855016	0.6840573683541208	0.3113375821407765	0.08273898136757696	0.684126556271314	0.36635786860148944	0.08542037901471973	0.7208877881812737	0.07506409103785323	0.43530448977815545	0.6363801671048305	0.051766653065428006	0.4179934849084297	0.8832061549696446	0.034007673129240495	0.3446784471898471	1.104675313624727	0.051092343536921214	0.283565847474692	1.1935352723769515	0.02913791284810116	0.28852411382747056	1.2179252110949446	0.013073624103910131	0.33149214064127375	1.2149506808544808
339	5.65	0.3385066225596231	0.3665449212108249	1.0538391932421702	0.33268853831441697	0.454718800942426	1.504513167767647	0.3277378179432622	0.465019502034829	1.900136964549813	0.3165266702077244	0.32574246111790495	1.9189723777178707	0.3734694242038205	0.3431248804102364	1.9171766159771382	0.30424658737521126	0.5675946208331382	1.9926373813519023	0.14434237349147086	0.38706204476441153	1.0866799476143805	0.1673606505393613	0.4590596373439555	1.523324173836044	0.14666282856516552	0.5010473586126681	1.9323013830960665	0.15466670645674127	0.30282142808765483	1.9035036542930108	0.11029732976110075	0.3586644944678395	1.9275509261460368	0.153721671402019	0.5322508541827979	1.9824407811590419	0.21453536477116034	0.39320833525185844	0.5360872655983111	0.19517268923275594	0.36214651309691154	0.3055254087038225	0.1951362530789272	0.316044601955556	0.4183015788363376	0.3647113136702691	0.42024305453844624	0.6083726550629799	0.42244093892493195	0.3707809290143501	0.8494477732043768	0.37279252138257873	0.19749971080421852	0.7517094730139511	0.30808906290087407	0.11714029200909078	0.6853058886635601	0.31622822849086196	0.07777288776366972	0.6836773956006115	0.3687744127288458	0.08548890851165075	0.722531918567933	0.07511608636400334	0.43578746477660857	0.6374410084914984	0.05186762358941686	0.41886411612566526	0.8838922018586444	0.03399761469529558	0.3446912173526879	1.1047280718166759	0.05159424923178722	0.28619381804343713	1.1943431458601192	0.028237384759607454	0.28875483005045455	1.2197051855744465	0.011834838896299247	0.3284646274453666	1.213847489418994
340	5.666666666666667	0.3384934195174763	0.366482219956651	1.0541553244089858	0.33150344804051085	0.4539913655646525	1.5041619303733194	0.3277774909871558	0.4653785911324483	1.8995227745602485	0.3166259711477634	0.32581491542784924	1.9187015574195616	0.3734590286480734	0.3433354221125262	1.917212551739744	0.304283947400309	0.5676374388927123	1.992573304383111	0.14291846988134216	0.38633587003788855	1.0864239507201057	0.16740227648578684	0.45906097810469004	1.5234232344673606	0.1471142912004096	0.49985221914521133	1.932293619342366	0.15480149451771655	0.3027909308868816	1.9030601102173978	0.11066354139367943	0.35766658885360325	1.9280046503586252	0.15372830990829647	0.5321942867083881	1.9824223530268008	0.21343973910269018	0.39628842717617496	0.5370646557592551	0.1951251075913196	0.36204606417288693	0.30564541509889426	0.19445537131455046	0.31347081742551663	0.41832662419885436	0.36318292017237236	0.4244604603690606	0.6079954999210913	0.4225623567421972	0.3703247793929709	0.8498546608919987	0.3749607607365278	0.19629946025852976	0.7530603803315188	0.31185337255009826	0.11754175709878206	0.6870543670508917	0.32132839807888386	0.0743339609342187	0.6831827230071574	0.3695039201125068	0.08556703424114015	0.7242993098931042	0.0751701784352505	0.436195971805638	0.6387578342973508	0.05192608461410291	0.4198275127463645	0.8847622493454078	0.03393398211297606	0.34443827159108126	1.1046694703759994	0.0513059724856492	0.28977603118949397	1.195654306195576	0.02796868431926114	0.28916708997452134	1.2220568256005582	0.010744424838358269	0.32646714750856565	1.2133240897454542
341	5.683333333333334	0.33848517467768036	0.3664344033300946	1.0541182319200315	0.3299360516547461	0.4530187403673095	1.5037324772588143	0.3277262711947091	0.4655678854258707	1.8992968971779223	0.31662054198423145	0.32586060661981714	1.918617660228917	0.3734177033634486	0.34364380256685023	1.9173198193149839	0.3043302091819239	0.567721078114506	1.9926215815288426	0.14141010285098427	0.3849656946811759	1.0859519214388755	0.16740998878805707	0.45906097010235286	1.5233586476582708	0.14794388601052275	0.4975764551712485	1.932292581262586	0.15483244731568452	0.3027976690155124	1.9031255735230959	0.11040720150487329	0.35869310824440315	1.9281545345363365	0.15372527148393694	0.5321582559465823	1.9823993170345744	0.21198941238777524	0.4004385743040345	0.5378096027531769	0.1950730961995384	0.36196063962859426	0.3056649770924601	0.1941914118484311	0.3124563102997453	0.4182494478774523	0.36207045199195914	0.4278521022395587	0.6074802126610209	0.42277894392404364	0.3702173945761476	0.8511028738428815	0.37722602785085035	0.19531774971669186	0.7538893778794797	0.3157503628554838	0.11767569661780419	0.6891383030564024	0.326026587757027	0.07256239031259482	0.6830811920194072	0.37005364208265457	0.08495997591516326	0.7265446715150006	0.07520453127522864	0.43636153922340826	0.6397414318180833	0.05180185094722396	0.42086579556146825	0.8855051954733849	0.03389761291902759	0.34428650998629384	1.1046418515351528	0.04961349355834358	0.29256258538951235	1.197335775136589	0.02801525144918853	0.28956774684773845	1.2237497720620651	0.010752399483694428	0.32466866677514705	1.213039498029803
342	5.7	0.3384797115887317	0.36644800388154986	1.0540083285127078	0.32883045572287944	0.4523184474035502	1.5034392282320344	0.3276921883909931	0.465454546691547	1.8983048439525616	0.31659311695077313	0.32586931763333693	1.9185987875952606	0.3733510716382489	0.34362532297861786	1.9174785362037305	0.304368928889919	0.5677795247715259	1.9927296490241084	0.1403432818729394	0.3832635096835915	1.0854927549636777	0.16732486977678768	0.4589519557411686	1.5227590108137057	0.14847198421284763	0.4960886857349671	1.9322815820409227	0.1548470887976176	0.30283667041715545	1.9032862443247804	0.10973833433069174	0.3610305884170926	1.9283659169204235	0.153716184382556	0.532091733155069	1.9823638064047837	0.210885166706766	0.403602933426855	0.5382924960002017	0.19503470222437172	0.36188929230094385	0.30569185399053633	0.1941927489896897	0.3124333400695439	0.41821539509509376	0.3621354370998716	0.42920136550384475	0.6070310925168109	0.4233460484095064	0.37122315611086765	0.8530774237153724	0.3789968949347556	0.19479273896410837	0.7541688560161877	0.32013171916598937	0.11773772765297308	0.6911633442215501	0.3312125196005412	0.07215723066495625	0.6836419249187736	0.37100000184822784	0.08282004604441637	0.7291761138499016	0.07521392192533784	0.43636778091101713	0.6401512906722131	0.051418835795566845	0.42183296215281285	0.8862753036576503	0.033892113913441164	0.3442700568201737	1.1046780220846941	0.046866514995317465	0.29380131349605093	1.1991408111299624	0.028078598831274965	0.28979554957364445	1.2242815481558857	0.011917607067978644	0.321664565997823	1.212247124213889
